<svg xmlns="http://www.w3.org/2000/svg" viewBox="0 0 103.82 160.8"><defs><style>.cls-1{fill:#d1161a;}.cls-2{fill:#231815;}</style></defs><title>アセット 4</title><g id="レイヤー_2" data-name="レイヤー 2"><g id="_2018_OL" data-name="2018_OL"><path class="cls-1" d="M74.08,12.54A21.55,21.55,0,0,1,82,23.39h0a21.92,21.92,0,0,1,0,13.42A21.52,21.52,0,0,1,79.47,42a32.24,32.24,0,0,1,3.32,7.11c.17.52.33,1.06.47,1.59a31.24,31.24,0,0,0,2.42-2.92A29.87,29.87,0,0,0,90,39.41a30.36,30.36,0,0,0,0-18.6h0A29.88,29.88,0,0,0,79,5.75h0A29.91,29.91,0,0,0,61.35,0h0a30.19,30.19,0,0,0-5.46.52A32,32,0,0,1,67.35,9.24a21.7,21.7,0,0,1,6.73,3.3Z"/><path class="cls-1" d="M67.16,80.57a32.18,32.18,0,0,1-7.9-1,21.74,21.74,0,0,1-20.15-2.85,21.94,21.94,0,0,1-7.89-10.85,21.63,21.63,0,0,1-1-5.69,32.13,32.13,0,0,1-6.71-3.68h0l-.14-.1h0l-.15-.12c-.39-.29-.78-.58-1.16-.89a30.82,30.82,0,0,0-.24,3.78,30.08,30.08,0,0,0,1.47,9.3h0a30.36,30.36,0,0,0,10.94,15A30,30,0,0,0,73.69,79.9a32.15,32.15,0,0,1-6.52.68Z"/><path class="cls-1" d="M8,57.37a29.85,29.85,0,0,0,10.94,15h0a29.47,29.47,0,0,0,4.72,2.8A32.08,32.08,0,0,1,19.46,61.4,21.69,21.69,0,0,1,16,54.78h0a21.55,21.55,0,0,1,0-13.41h0A21.91,21.91,0,0,1,23.83,30.5h0a21.77,21.77,0,0,1,5.09-2.74,32.29,32.29,0,0,1,1.49-7.71c.17-.53.36-1,.56-1.56a29.73,29.73,0,0,0-3.68.94,30.08,30.08,0,0,0-8.39,4.27h0A30.37,30.37,0,0,0,8,38.76,29.91,29.91,0,0,0,8,57.37Z"/><path class="cls-1" d="M17.49,21.77a32.25,32.25,0,0,1,7-3.85,21.75,21.75,0,0,1,18-9.53h0a21.9,21.9,0,0,1,12.76,4.14h0a21.74,21.74,0,0,1,4.18,4,32.43,32.43,0,0,1,7.79-1c.55,0,1.1,0,1.65.05a30,30,0,0,0-8.68-9.87A30.36,30.36,0,0,0,42.44,0h0A30.09,30.09,0,0,0,13.81,20.8h0a30,30,0,0,0-1.2,5.35A32,32,0,0,1,17.49,21.77Z"/><path class="cls-1" d="M21.79,36.81h0c-.09-.27-.17-.54-.25-.81a19.4,19.4,0,0,0-3.31,6.11h0a19.25,19.25,0,0,0-.9,4.6c.24.36.49.73.75,1.09a30.17,30.17,0,0,0,6.66,6.66h0a30.32,30.32,0,0,0,12.07,5.2c-.2-.51-.38-1-.55-1.54l-2.66-8.2a21.39,21.39,0,0,1-3.92-2.25h0a21.86,21.86,0,0,1-7.89-10.86Z"/><path class="cls-1" d="M31.48,33.93q.55-.44,1.12-.85l7.14-5.19a21.3,21.3,0,0,1,.94-4.49h0a21.74,21.74,0,0,1,7.89-10.86h0l.7-.49a19.64,19.64,0,0,0-6.84-1.26,19.32,19.32,0,0,0-4.66.57c-.27.34-.54.69-.8,1.05a30,30,0,0,0-4.28,8.39h0A30.24,30.24,0,0,0,31.48,33.93Z"/><path class="cls-1" d="M40.54,74.8a19.34,19.34,0,0,0,4.09,2.28l1.27-.38A30,30,0,0,0,63,62.56c-.55,0-1.09,0-1.64,0H52.71a21.49,21.49,0,0,1-3.35,3h0A21.84,21.84,0,0,1,36.6,69.78h0l-.85,0A19.44,19.44,0,0,0,40.54,74.8Z"/><path class="cls-1" d="M70.25,53.2a19.25,19.25,0,0,0-1.18-2.83,21.82,21.82,0,0,1-7.74,1.44H48.08L48.8,54a19.49,19.49,0,0,0,3.35,6.17h9.18a30.16,30.16,0,0,0,9.85-1.67A19.25,19.25,0,0,0,70.25,53.2Z"/><path class="cls-1" d="M35.69,48.61l2.85,8.76a30.34,30.34,0,0,0,4.64,8.85,19.3,19.3,0,0,0,4.74-2.5l0,0a19.21,19.21,0,0,0,2.32-2,21.91,21.91,0,0,1-3.76-6.91L42.44,42.23l-2.09,1.52A19.34,19.34,0,0,0,35.69,48.61Z"/><path class="cls-1" d="M27,42.16a19.28,19.28,0,0,0,3.88,3.76h0a18.73,18.73,0,0,0,2.62,1.6,21.82,21.82,0,0,1,5.42-5.71l10.94-8-1.94-1.41a19.47,19.47,0,0,0-6.27-3L34,35A30.19,30.19,0,0,0,27,42.16Z"/><path class="cls-1" d="M59,49.41h2.34a19.29,19.29,0,0,0,6.89-1.28h0l2.84-8.73a30.3,30.3,0,0,0,1.45-9.88,19.56,19.56,0,0,0-5.35-.77A19.23,19.23,0,0,0,64.1,29a21.84,21.84,0,0,1-1,7.8Z"/><path class="cls-1" d="M45.34,19.28A19.27,19.27,0,0,0,43,24.14l0,.05a19,19,0,0,0-.69,2.93,22,22,0,0,1,7.1,3.38l10.72,7.79.73-2.23a19.4,19.4,0,0,0,.91-6.94v0l-7.42-5.39A30.27,30.27,0,0,0,45.34,19.28Z"/><path class="cls-1" d="M72.25,66.69a19.43,19.43,0,0,0,6.27-3,19.23,19.23,0,0,0,3.43-3.19q0-.66,0-1.32a29.92,29.92,0,0,0-8.17-20.6c-.14.52-.29,1-.46,1.57l-2.67,8.2a21.7,21.7,0,0,1,1.85,17.55C72.44,66.16,72.34,66.42,72.25,66.69Z"/><path class="cls-1" d="M87.81,54.78a21.54,21.54,0,0,1-7.88,10.85h0a21.91,21.91,0,0,1-12.76,4.16h0A21.45,21.45,0,0,1,61.44,69a32.16,32.16,0,0,1-5.74,5.37q-.67.48-1.36.93a29.23,29.23,0,0,0,3.52,1.4,29.94,29.94,0,0,0,9.3,1.48h0a30.34,30.34,0,0,0,17.68-5.76,29.85,29.85,0,0,0,10.94-15h0a29.93,29.93,0,0,0-2.18-23.64,32,32,0,0,1-4.75,13.63,21.66,21.66,0,0,1-1.06,7.42Z"/><path class="cls-1" d="M67.16,18a30.28,30.28,0,0,0-12.54,2.75c.42.28.84.56,1.25.86L63,26.77a21.22,21.22,0,0,1,4.15-.41A21.77,21.77,0,0,1,79.92,30.5l.68.52a19.5,19.5,0,0,0-.92-6.89,19.12,19.12,0,0,0-2-4.25q-.62-.23-1.24-.44A30,30,0,0,0,67.17,18h0Z"/><path class="cls-2" d="M2.43,101.67v19h4v2.25H0V101.67Z"/><path class="cls-2" d="M12.42,123.11h-.91c-2.64,0-3.95-1.31-3.95-3.95V105.44c0-2.64,1.31-3.95,3.95-3.95h.91c2.64,0,3.95,1.31,3.95,3.95v13.73C16.36,121.8,15.06,123.11,12.42,123.11Zm-.09-19.4H11.6A1.41,1.41,0,0,0,10,105.32v14a1.41,1.41,0,0,0,1.61,1.61h.73a1.41,1.41,0,0,0,1.61-1.61v-14A1.41,1.41,0,0,0,12.33,103.71Z"/><path class="cls-2" d="M18.61,101.67h4c3.19,0,4.71,1.52,4.71,4.71v11.84c0,3.19-1.52,4.71-4.71,4.71h-4Zm2.43,19H22.5c1.64,0,2.4-.82,2.4-2.46v-11.9c0-1.64-.76-2.46-2.4-2.46H21Z"/><path class="cls-2" d="M39.22,112.6a.76.76,0,0,1-.82-.85v-1.82a1.62,1.62,0,0,0-1.82-1.85h-.42a1.62,1.62,0,0,0-1.82,1.85v9.69a1.6,1.6,0,0,0,1.82,1.82h.46a1.6,1.6,0,0,0,1.82-1.82v-2.37a.75.75,0,0,1,.82-.82h.06a.76.76,0,0,1,.85.82v2.31c0,2.34-1.18,3.55-3.52,3.55h-.52c-2.37,0-3.55-1.21-3.55-3.55V110q0-3.55,3.55-3.55h.52c2.34,0,3.49,1.18,3.49,3.49v1.82a.77.77,0,0,1-.85.85Z"/><path class="cls-2" d="M44.29,122.14a.77.77,0,0,1-.85.85h-.06a.76.76,0,0,1-.82-.85v-20a.76.76,0,0,1,.82-.85h.06a.77.77,0,0,1,.85.85v5.74a4.16,4.16,0,0,1,3-1.46,2.48,2.48,0,0,1,2.79,2.79v12.91a.75.75,0,0,1-.82.85h-.06a.74.74,0,0,1-.85-.85V109.57c0-1.06-.55-1.52-1.43-1.52a4.07,4.07,0,0,0-2.67,1.37Z"/><path class="cls-2" d="M58,121.74a4.17,4.17,0,0,1-3,1.37,2.38,2.38,0,0,1-2.67-2.7v-3c0-1.88.64-2.7,2.43-3.34L58,112.85v-3c0-1.12-.58-1.73-1.88-1.73s-1.88.61-1.88,1.73v1.4a.66.66,0,0,1-.76.76h-.21a.64.64,0,0,1-.73-.73v-1.37c0-2.28,1.18-3.43,3.61-3.43s3.58,1.15,3.58,3.43v12.27c0,.58-.27.85-.82.85h-.06a.74.74,0,0,1-.85-.85Zm-2.52-.24h.06A3.94,3.94,0,0,0,58,120.23v-5.77l-2.49.94a1.83,1.83,0,0,0-1.4,2v2.67C54.13,121,54.61,121.5,55.49,121.5Z"/><path class="cls-2" d="M63.14,123a.77.77,0,0,1-.85-.85v-20a.77.77,0,0,1,.85-.85h.06a.77.77,0,0,1,.85.85v20a.77.77,0,0,1-.85.85Z"/><path class="cls-2" d="M74,119.56c0,2.34-1.21,3.55-3.55,3.55h-.43c-2.37,0-3.55-1.21-3.55-3.55V110c0-2.34,1.18-3.55,3.55-3.55h.43c2.34,0,3.55,1.21,3.55,3.55v4.46a.91.91,0,0,1-1,1H68.27v4.16a1.62,1.62,0,0,0,1.85,1.82h.36a1.63,1.63,0,0,0,1.85-1.82v-1.15a.75.75,0,0,1,.82-.82h.06a.75.75,0,0,1,.82.82Zm-5.77-9.63v3.86h4v-3.86a1.63,1.63,0,0,0-1.82-1.85h-.33A1.64,1.64,0,0,0,68.27,109.93Z"/><path class="cls-2" d="M77.29,123h-.06c-.55,0-.82-.27-.82-.85V107.35a.72.72,0,0,1,.82-.79h.06c.55,0,.85.27.85.79v.55a4.06,4.06,0,0,1,3-1.46A2.47,2.47,0,0,1,84,109.23v12.91a.75.75,0,0,1-.82.85h-.06a.74.74,0,0,1-.85-.85V109.57c0-1.09-.55-1.52-1.43-1.52a3.94,3.94,0,0,0-2.67,1.37v12.72A.76.76,0,0,1,77.29,123Z"/><path class="cls-2" d="M92.23,107.84v-.46a.72.72,0,0,1,.82-.82h.06c.58,0,.85.27.85.82v15.76c0,2.22-1.06,3.25-3.34,3.25H89.55c-2.13,0-3.13-.94-3.13-2.95v-.12c0-.52.27-.73.76-.73h.09c.49,0,.76.24.76.67v.12c0,.94.42,1.46,1.58,1.46h1.06a1.33,1.33,0,0,0,1.52-1.49V120a4.24,4.24,0,0,1-3,1.4,2.65,2.65,0,0,1-2.88-3v-9c0-1.88.94-3,2.88-3A4.06,4.06,0,0,1,92.23,107.84Zm-2.67.21a1.37,1.37,0,0,0-1.49,1.58v8.65a1.36,1.36,0,0,0,1.52,1.52,3.92,3.92,0,0,0,2.64-1.31v-9A4.1,4.1,0,0,0,89.55,108Z"/><path class="cls-2" d="M103.82,119.56c0,2.34-1.21,3.55-3.55,3.55h-.43c-2.37,0-3.55-1.21-3.55-3.55V110c0-2.34,1.18-3.55,3.55-3.55h.43c2.34,0,3.55,1.21,3.55,3.55v4.46a.91.91,0,0,1-1,1H98.05v4.16a1.62,1.62,0,0,0,1.85,1.82h.36a1.63,1.63,0,0,0,1.85-1.82v-1.15a.75.75,0,0,1,.82-.82H103a.75.75,0,0,1,.82.82Zm-5.77-9.63v3.86h4v-3.86a1.63,1.63,0,0,0-1.82-1.85h-.33A1.64,1.64,0,0,0,98.05,109.93Z"/><path class="cls-2" d="M39.13,148.68a3.18,3.18,0,0,0,.93-2.28v-3.18c0-1.08-.51-1.59-1.53-1.59H38c-1,0-1.53.51-1.53,1.59v4H34.18v-3.84c0-2.61,1.29-3.9,3.84-3.9h.6c2.55,0,3.84,1.29,3.84,3.9V146a5.77,5.77,0,0,1-1.56,4.08l-3.39,4.26a3.58,3.58,0,0,0-1,2.79v1.23h5.94v2.22H34.12V157a5.76,5.76,0,0,1,1.62-4.08Z"/><path class="cls-2" d="M49.12,160.8h-.78c-2.61,0-3.9-1.29-3.9-3.9V143.34c0-2.61,1.29-3.9,3.9-3.9h.78c2.61,0,3.9,1.29,3.9,3.9V156.9C53,159.51,51.73,160.8,49.12,160.8Zm-.06-19.17H48.4a1.39,1.39,0,0,0-1.59,1.59V157a1.39,1.39,0,0,0,1.59,1.59h.66A1.39,1.39,0,0,0,50.65,157v-13.8A1.39,1.39,0,0,0,49.06,141.63Z"/><path class="cls-2" d="M58.6,160.62H56.32V143.37h-2v-1.86l.24,0A3.16,3.16,0,0,0,57,140l.36-.48H58.6Z"/><path class="cls-2" d="M65.53,139.44c2.61,0,3.9,1.29,3.9,3.9v3.24c0,1.8-.63,2.7-1.74,3.12,1.26.36,1.8,1.17,1.8,2.7v4.5c0,2.61-1.29,3.9-3.9,3.9H65c-2.61,0-3.9-1.29-3.9-3.9v-4.5c0-1.53.54-2.34,1.8-2.7-1.11-.42-1.74-1.32-1.74-3.12v-3.24c0-2.61,1.29-3.9,3.9-3.9ZM63.4,157.05A1.39,1.39,0,0,0,65,158.64h.6a1.39,1.39,0,0,0,1.59-1.59v-4.5A1.39,1.39,0,0,0,65.59,151H65a1.39,1.39,0,0,0-1.59,1.59Zm2.16-8.22a1.39,1.39,0,0,0,1.59-1.59v-4a1.39,1.39,0,0,0-1.59-1.59H65a1.39,1.39,0,0,0-1.59,1.59v4A1.39,1.39,0,0,0,65,148.83Z"/></g></g></svg>