<svg xmlns="http://www.w3.org/2000/svg" viewBox="0 0 211.53 54.49"><defs><style>.cls-1{fill:#d1161a;}.cls-2{fill:#231815;}</style></defs><title>アセット 3</title><g id="レイヤー_2" data-name="レイヤー 2"><g id="_2018_OL" data-name="2018_OL"><path class="cls-1" d="M41.26,7.66a13.15,13.15,0,0,1,4.81,6.62h0a13.38,13.38,0,0,1,0,8.19,13.16,13.16,0,0,1-1.53,3.18,19.65,19.65,0,0,1,2,4.34c.1.32.2.64.29,1a19,19,0,0,0,1.48-1.78,18.27,18.27,0,0,0,2.61-5.12,18.53,18.53,0,0,0,0-11.35h0a18.24,18.24,0,0,0-6.67-9.19h0A18.26,18.26,0,0,0,33.49,0h0a18.43,18.43,0,0,0-3.33.32,19.53,19.53,0,0,1,3.47,2,19.73,19.73,0,0,1,3.55,3.32,13.24,13.24,0,0,1,4.11,2Z"/><path class="cls-1" d="M37,49.18a19.65,19.65,0,0,1-4.82-.6,13.27,13.27,0,0,1-12.29-1.74,13.38,13.38,0,0,1-4.82-6.62,13.21,13.21,0,0,1-.63-3.47,19.59,19.59,0,0,1-4.09-2.25h0l-.09-.06h0l-.09-.07-.7-.54a18.7,18.7,0,0,0-.15,2.31,18.38,18.38,0,0,0,.9,5.68h0A18.53,18.53,0,0,0,16.91,51,18.32,18.32,0,0,0,41,48.76a19.65,19.65,0,0,1-4,.41Z"/><path class="cls-1" d="M.91,35A18.22,18.22,0,0,0,7.58,44.2h0a18,18,0,0,0,2.88,1.71,19.56,19.56,0,0,1-2.54-8.43,13.24,13.24,0,0,1-2.14-4h0a13.15,13.15,0,0,1,0-8.19h0a13.37,13.37,0,0,1,4.81-6.63h0a13.25,13.25,0,0,1,3.11-1.67,19.68,19.68,0,0,1,.91-4.7c.11-.32.22-.64.34-1a18.1,18.1,0,0,0-2.24.58,18.35,18.35,0,0,0-5.12,2.61h0A18.54,18.54,0,0,0,.91,23.66,18.25,18.25,0,0,0,.91,35Z"/><path class="cls-1" d="M6.72,13.29A19.73,19.73,0,0,1,11,10.94a13.28,13.28,0,0,1,11-5.82h0a13.37,13.37,0,0,1,7.79,2.53h0a13.3,13.3,0,0,1,2.55,2.44A19.81,19.81,0,0,1,37,9.5c.34,0,.67,0,1,0A18.35,18.35,0,0,0,21.94,0h0A18.37,18.37,0,0,0,4.47,12.7h0A18.32,18.32,0,0,0,3.74,16,19.58,19.58,0,0,1,6.72,13.29Z"/><path class="cls-1" d="M9.34,22.47h0c-.05-.17-.1-.33-.15-.5a11.86,11.86,0,0,0-2,3.73h0a11.79,11.79,0,0,0-.55,2.81c.15.22.3.44.46.66a18.41,18.41,0,0,0,4.06,4.07h0a18.5,18.5,0,0,0,7.37,3.17c-.12-.31-.23-.63-.34-.94l-1.62-5a13,13,0,0,1-2.39-1.37h0a13.33,13.33,0,0,1-4.81-6.63Z"/><path class="cls-1" d="M15.26,20.71l.68-.52L20.3,17a13,13,0,0,1,.57-2.74h0a13.28,13.28,0,0,1,4.82-6.63h0l.43-.3a12,12,0,0,0-4.17-.77,11.79,11.79,0,0,0-2.84.35c-.17.21-.33.42-.49.64A18.32,18.32,0,0,0,16,12.69h0A18.47,18.47,0,0,0,15.26,20.71Z"/><path class="cls-1" d="M20.78,45.65A11.8,11.8,0,0,0,23.28,47l.77-.23a18.28,18.28,0,0,0,10.42-8.63l-1,0H28.22a13.11,13.11,0,0,1-2,1.85h0a13.33,13.33,0,0,1-7.79,2.53h-.52A11.87,11.87,0,0,0,20.78,45.65Z"/><path class="cls-1" d="M38.92,32.47a11.68,11.68,0,0,0-.72-1.73,13.3,13.3,0,0,1-4.72.88H25.39L25.83,33a11.89,11.89,0,0,0,2,3.76h5.6a18.42,18.42,0,0,0,6-1A11.76,11.76,0,0,0,38.92,32.47Z"/><path class="cls-1" d="M17.83,29.67,19.56,35a18.51,18.51,0,0,0,2.83,5.4,11.81,11.81,0,0,0,2.89-1.53l0,0a11.67,11.67,0,0,0,1.42-1.22,13.36,13.36,0,0,1-2.29-4.22l-2.49-7.66-1.28.92A11.82,11.82,0,0,0,17.83,29.67Z"/><path class="cls-1" d="M12.54,25.73A11.78,11.78,0,0,0,14.91,28h0a11.38,11.38,0,0,0,1.6,1,13.33,13.33,0,0,1,3.31-3.48l6.68-4.85-1.18-.86A11.87,11.87,0,0,0,21.48,18l-4.68,3.4A18.45,18.45,0,0,0,12.54,25.73Z"/><path class="cls-1" d="M32,30.16h1.43a11.78,11.78,0,0,0,4.2-.78h0L39.42,24a18.51,18.51,0,0,0,.89-6A11.94,11.94,0,0,0,37,17.55a11.75,11.75,0,0,0-1.87.16,13.33,13.33,0,0,1-.63,4.76Z"/><path class="cls-1" d="M23.71,11.77a11.69,11.69,0,0,0-1.45,3v0a11.54,11.54,0,0,0-.42,1.79,13.38,13.38,0,0,1,4.33,2.06l6.54,4.75L33.15,22a11.84,11.84,0,0,0,.56-4.23h0l-4.53-3.29A18.49,18.49,0,0,0,23.71,11.77Z"/><path class="cls-1" d="M40.14,40.7A11.86,11.86,0,0,0,44,38.87a11.73,11.73,0,0,0,2.09-2c0-.27,0-.54,0-.8a18.26,18.26,0,0,0-5-12.57c-.08.32-.18.64-.28,1l-1.63,5a13.25,13.25,0,0,1,1.13,10.71Z"/><path class="cls-1" d="M49.63,33.43a13.15,13.15,0,0,1-4.81,6.62h0A13.37,13.37,0,0,1,37,42.59h0a13.09,13.09,0,0,1-3.5-.48A19.62,19.62,0,0,1,30,45.39q-.41.29-.83.57a17.8,17.8,0,0,0,2.15.85,18.29,18.29,0,0,0,5.68.9h0A18.52,18.52,0,0,0,47.83,44.2,18.22,18.22,0,0,0,54.51,35h0a18.28,18.28,0,0,0-1.33-14.43,19.54,19.54,0,0,1-2.9,8.32,13.23,13.23,0,0,1-.64,4.53Z"/><path class="cls-1" d="M37,11a18.48,18.48,0,0,0-7.65,1.68l.76.52,4.36,3.17A13,13,0,0,1,37,16.09a13.29,13.29,0,0,1,7.79,2.53l.42.32a11.93,11.93,0,0,0-.56-4.2,11.67,11.67,0,0,0-1.21-2.6l-.76-.27A18.27,18.27,0,0,0,37,11h0Z"/><path class="cls-2" d="M68.72,16.35v19h4v2.25H66.29V16.35Z"/><path class="cls-2" d="M78.7,37.79h-.91c-2.64,0-3.95-1.31-3.95-3.95V20.12c0-2.64,1.31-3.95,3.95-3.95h.91c2.64,0,3.95,1.31,3.95,3.95V33.84C82.65,36.48,81.35,37.79,78.7,37.79Zm-.09-19.4h-.73A1.41,1.41,0,0,0,76.27,20V34a1.41,1.41,0,0,0,1.61,1.61h.73A1.41,1.41,0,0,0,80.22,34V20A1.41,1.41,0,0,0,78.61,18.39Z"/><path class="cls-2" d="M84.9,16.35h4c3.19,0,4.71,1.52,4.71,4.71V32.9c0,3.19-1.52,4.71-4.71,4.71h-4Zm2.43,19h1.46c1.64,0,2.4-.82,2.4-2.46V21c0-1.64-.76-2.46-2.4-2.46H87.32Z"/><path class="cls-2" d="M105.51,27.28a.76.76,0,0,1-.82-.85V24.61a1.62,1.62,0,0,0-1.82-1.85h-.42a1.62,1.62,0,0,0-1.82,1.85V34.3a1.6,1.6,0,0,0,1.82,1.82h.46a1.6,1.6,0,0,0,1.82-1.82V31.93a.75.75,0,0,1,.82-.82h.06a.76.76,0,0,1,.85.82v2.31c0,2.34-1.18,3.55-3.52,3.55h-.52c-2.37,0-3.55-1.21-3.55-3.55V24.67q0-3.55,3.55-3.55h.52c2.34,0,3.49,1.18,3.49,3.49v1.82a.77.77,0,0,1-.85.85Z"/><path class="cls-2" d="M110.58,36.82a.77.77,0,0,1-.85.85h-.06a.76.76,0,0,1-.82-.85v-20a.76.76,0,0,1,.82-.85h.06a.77.77,0,0,1,.85.85v5.74a4.16,4.16,0,0,1,3-1.46,2.48,2.48,0,0,1,2.79,2.79V36.82a.75.75,0,0,1-.82.85h-.06a.74.74,0,0,1-.85-.85V24.25c0-1.06-.55-1.52-1.43-1.52a4.07,4.07,0,0,0-2.67,1.37Z"/><path class="cls-2" d="M124.3,36.42a4.17,4.17,0,0,1-3,1.37,2.38,2.38,0,0,1-2.67-2.7v-3c0-1.88.64-2.7,2.43-3.34l3.22-1.18v-3c0-1.12-.58-1.73-1.88-1.73s-1.88.61-1.88,1.73v1.4a.66.66,0,0,1-.76.76h-.21a.64.64,0,0,1-.73-.73V24.55c0-2.28,1.18-3.43,3.61-3.43S126,22.27,126,24.55V36.82c0,.58-.27.85-.82.85h-.06a.74.74,0,0,1-.85-.85Zm-2.52-.24h.06a4,4,0,0,0,2.46-1.28V29.14l-2.49.94a1.83,1.83,0,0,0-1.4,2v2.67C120.41,35.73,120.9,36.18,121.78,36.18Z"/><path class="cls-2" d="M129.43,37.67a.77.77,0,0,1-.85-.85v-20a.77.77,0,0,1,.85-.85h.06a.77.77,0,0,1,.85.85v20a.77.77,0,0,1-.85.85Z"/><path class="cls-2" d="M140.33,34.24c0,2.34-1.21,3.55-3.55,3.55h-.43c-2.37,0-3.55-1.21-3.55-3.55V24.67c0-2.34,1.19-3.55,3.55-3.55h.43c2.34,0,3.55,1.21,3.55,3.55v4.46a.91.91,0,0,1-1,1h-4.77V34.3a1.62,1.62,0,0,0,1.85,1.82h.36a1.63,1.63,0,0,0,1.85-1.82V33.14a.75.75,0,0,1,.82-.82h.06a.75.75,0,0,1,.82.82Zm-5.77-9.63v3.86h4V24.61a1.63,1.63,0,0,0-1.82-1.85h-.33A1.64,1.64,0,0,0,134.56,24.61Z"/><path class="cls-2" d="M143.58,37.67h-.06c-.55,0-.82-.27-.82-.85V22a.72.72,0,0,1,.82-.79h.06c.55,0,.85.27.85.79v.55a4.06,4.06,0,0,1,3-1.46,2.47,2.47,0,0,1,2.79,2.79V36.82a.75.75,0,0,1-.82.85h-.06a.74.74,0,0,1-.85-.85V24.25c0-1.09-.55-1.52-1.43-1.52a3.94,3.94,0,0,0-2.67,1.37V36.82A.75.75,0,0,1,143.58,37.67Z"/><path class="cls-2" d="M158.51,22.52v-.46a.72.72,0,0,1,.82-.82h.06c.58,0,.85.27.85.82V37.82c0,2.22-1.06,3.25-3.34,3.25h-1.06c-2.13,0-3.13-.94-3.13-2.95V38c0-.52.27-.73.76-.73h.09c.49,0,.76.24.76.67v.12c0,.94.42,1.46,1.58,1.46H157A1.33,1.33,0,0,0,158.48,38V34.72a4.24,4.24,0,0,1-3,1.4,2.65,2.65,0,0,1-2.88-3v-9c0-1.88.94-3,2.88-3A4.06,4.06,0,0,1,158.51,22.52Zm-2.67.21a1.37,1.37,0,0,0-1.49,1.58V33a1.36,1.36,0,0,0,1.52,1.52,3.92,3.92,0,0,0,2.64-1.31v-9A4.1,4.1,0,0,0,155.84,22.73Z"/><path class="cls-2" d="M170.11,34.24c0,2.34-1.21,3.55-3.55,3.55h-.43c-2.37,0-3.55-1.21-3.55-3.55V24.67c0-2.34,1.18-3.55,3.55-3.55h.43c2.34,0,3.55,1.21,3.55,3.55v4.46a.91.91,0,0,1-1,1h-4.77V34.3a1.62,1.62,0,0,0,1.85,1.82h.36a1.63,1.63,0,0,0,1.85-1.82V33.14a.75.75,0,0,1,.82-.82h.06a.75.75,0,0,1,.82.82Zm-5.77-9.63v3.86h4V24.61a1.63,1.63,0,0,0-1.82-1.85h-.33A1.64,1.64,0,0,0,164.34,24.61Z"/><path class="cls-2" d="M181.17,25.54a3.18,3.18,0,0,0,.93-2.28V20.08c0-1.08-.51-1.59-1.53-1.59h-.48c-1,0-1.53.51-1.53,1.59v4h-2.34V20.2c0-2.61,1.29-3.9,3.84-3.9h.6c2.55,0,3.84,1.29,3.84,3.9v2.7A5.77,5.77,0,0,1,182.94,27l-3.39,4.26a3.58,3.58,0,0,0-1,2.79v1.23h5.94v2.22h-8.34v-3.6a5.76,5.76,0,0,1,1.62-4.08Z"/><path class="cls-2" d="M191.16,37.66h-.78c-2.61,0-3.9-1.29-3.9-3.9V20.2c0-2.61,1.29-3.9,3.9-3.9h.78c2.61,0,3.9,1.29,3.9,3.9V33.76C195.06,36.37,193.77,37.66,191.16,37.66Zm-.06-19.17h-.66a1.39,1.39,0,0,0-1.59,1.59v13.8a1.39,1.39,0,0,0,1.59,1.59h.66a1.39,1.39,0,0,0,1.59-1.59V20.08A1.39,1.39,0,0,0,191.1,18.49Z"/><path class="cls-2" d="M200.64,37.48h-2.28V20.23h-2V18.37l.24,0a3.16,3.16,0,0,0,2.43-1.47l.36-.48h1.23Z"/><path class="cls-2" d="M207.57,16.3c2.61,0,3.9,1.29,3.9,3.9v3.24c0,1.8-.63,2.7-1.74,3.12,1.26.36,1.8,1.17,1.8,2.7v4.5c0,2.61-1.29,3.9-3.9,3.9H207c-2.61,0-3.9-1.29-3.9-3.9v-4.5c0-1.53.54-2.34,1.8-2.7-1.11-.42-1.74-1.32-1.74-3.12V20.2c0-2.61,1.29-3.9,3.9-3.9Zm-2.13,17.61A1.39,1.39,0,0,0,207,35.5h.6a1.39,1.39,0,0,0,1.59-1.59v-4.5a1.39,1.39,0,0,0-1.59-1.59H207a1.39,1.39,0,0,0-1.59,1.59Zm2.16-8.22a1.39,1.39,0,0,0,1.59-1.59v-4a1.39,1.39,0,0,0-1.59-1.59h-.54a1.39,1.39,0,0,0-1.59,1.59v4a1.39,1.39,0,0,0,1.59,1.59Z"/></g></g></svg>